<!-- Source: Nucleo Credit Card Icons https://nucleoapp.com/credit-card-icons -->
<svg xmlns="http://www.w3.org/2000/svg" viewBox="0 0 32 32"><g><rect x="2" y="7" width="28" height="18" rx="3" ry="3" fill="#fff" stroke-width="0"></rect><path d="m27,7H5c-1.657,0-3,1.343-3,3v12c0,1.657,1.343,3,3,3h22c1.657,0,3-1.343,3-3v-12c0-1.657-1.343-3-3-3Zm2,15c0,1.103-.897,2-2,2H5c-1.103,0-2-.897-2-2v-12c0-1.103.897-2,2-2h22c1.103,0,2,.897,2,2v12Z" stroke-width="0" opacity=".15"></path><path d="m27,8H5c-1.105,0-2,.895-2,2v1c0-1.105.895-2,2-2h22c1.105,0,2,.895,2,2v-1c0-1.105-.895-2-2-2Z" fill="#fff" opacity=".2" stroke-width="0"></path><path d="m9.193,9h5.586c.78,0,1.265.636,1.083,1.419l-2.601,11.165c-.184.781-.964,1.416-1.744,1.416h-5.586c-.78,0-1.265-.636-1.083-1.416l2.602-11.165c.181-.783.961-1.419,1.743-1.419" fill="#ed171f" stroke-width="0"></path><path d="m14.314,9h6.424c.78,0,.428.636.245,1.419l-2.601,11.165c-.182.781-.125,1.416-.906,1.416h-6.423c-.781,0-1.265-.636-1.081-1.416l2.6-11.165c.184-.783.963-1.419,1.743-1.419" fill="#082f67" stroke-width="0"></path><path d="m20.484,9h5.585c.78,0,1.265.636,1.082,1.419l-2.601,11.165c-.183.781-.963,1.416-1.745,1.416h-5.584c-.782,0-1.266-.636-1.082-1.416l2.6-11.165c.183-.783.963-1.419,1.745-1.419" fill="#006a65" stroke-width="0"></path><path d="m19.551,19.504h.527l.152-.506h-.527l-.152.506Zm.421-1.397l-.181.599s.2-.103.308-.134c.108-.025.272-.045.272-.045l.128-.419h-.527Zm.262-.862l-.175.576s.196-.088.303-.118c.108-.028.271-.039.271-.039l.126-.419h-.526Zm1.165,0l-.681,2.253h.183l-.141.466h-.183l-.042.145h-.648l.044-.145h-1.317l.132-.431h.133l.691-2.287.138-.462h.661l-.069.234s.176-.127.343-.17c.167-.044,1.125-.06,1.125-.06l-.142.459h-.226Z" fill="#fff" fill-rule="evenodd" stroke-width="0"></path><path d="m21.69,16.786h.705l.008.263c-.004.044.034.065.115.065h.143l-.131.434h-.381c-.33.024-.455-.118-.448-.277l-.013-.485Z" fill="#fff" stroke-width="0"></path><path d="m21.783,18.845h-.672l.115-.387h.768l.11-.352h-.759l.13-.436h2.112l-.132.436h-.708l-.111.352h.71l-.117.387h-.769l-.136.163h.311l.076.487c.008.048.01.079.025.1.016.018.109.026.163.026h.095l-.144.474h-.24c-.037,0-.092-.003-.167-.007-.073-.006-.124-.048-.172-.071-.044-.022-.11-.075-.125-.166l-.075-.486-.349.479c-.111.151-.261.266-.514.266h-.49l.128-.423h.187c.054,0,.102-.021.137-.039.036-.015.068-.033.104-.087l.508-.717Z" fill="#fff" stroke-width="0"></path><path d="m14.419,17.787h1.78l-.132.425h-.712l-.111.361h.728l-.133.439h-.728l-.176.589c-.022.065.172.075.242.075l.365-.05-.146.485h-.821c-.065,0-.115-.009-.187-.025-.069-.017-.1-.048-.13-.095-.03-.048-.075-.087-.044-.19l.236-.78h-.404l.134-.446h.407l.108-.361h-.405l.13-.425Z" fill="#fff" stroke-width="0"></path><path d="m15.618,17.023h.73l-.134.444h-.998l-.108.093c-.046.045-.062.026-.122.059-.056.029-.175.085-.329.085h-.32l.13-.427h.096c.081,0,.137-.007.164-.025.032-.02.067-.065.108-.139l.183-.333h.727l-.127.243Z" fill="#fff" stroke-width="0"></path><path d="m17.019,17.754s.199-.182.54-.241c.078-.015.563-.01.563-.01l.073-.244h-1.028l-.149.495Zm.963.186h-1.02l-.062.206h.882c.104-.013.126.002.134-.003l.066-.203Zm-1.321-1.154h.622l-.09.313s.196-.157.334-.213c.137-.051.447-.097.447-.097l1.006-.005-.343,1.142c-.057.196-.125.323-.167.38-.038.059-.083.108-.171.156-.085.045-.162.072-.233.079-.067.005-.169.008-.31.009h-.969l-.274.904c-.026.089-.038.132-.021.156.014.022.047.046.093.046l.427-.04-.146.496h-.479c-.152,0-.263-.003-.341-.009-.074-.006-.151,0-.202-.04-.045-.039-.113-.09-.111-.143.005-.049.025-.131.057-.242l.871-2.89Z" fill="#fff" fill-rule="evenodd" stroke-width="0"></path><path d="m18.475,18.63l-.057.274c-.025.085-.047.151-.111.206-.067.057-.148.118-.335.118l-.345.014-.003.311c-.005.088.019.079.033.093.016.015.03.022.046.027l.109-.005.33-.019-.136.453h-.379c-.265,0-.462-.006-.527-.057-.063-.04-.072-.091-.07-.178l.024-1.209h.604l-.008.247h.146c.049,0,.082-.005.104-.018.018-.014.031-.033.041-.064l.059-.193h.475Z" fill="#fff" stroke-width="0"></path><path d="m9.854,12.567c-.022.097-.409,1.886-.411,1.887-.084.362-.143.621-.35.786-.117.096-.254.144-.412.144-.254,0-.403-.126-.429-.367l-.005-.082s.077-.485.078-.487c0,0,.407-1.63.479-1.845.003-.012.005-.018.006-.024-.792.007-.933,0-.942-.012-.005.016-.026.117-.026.117l-.416,1.836-.036.157-.068.509c0,.15.03.274.089.379.19.332.73.381,1.035.381.394,0,.762-.084,1.011-.236.433-.256.547-.657.648-1.012l.047-.182s.419-1.693.491-1.914c.002-.012.003-.018.006-.024-.574.006-.743,0-.797-.012" fill="#fff" stroke-width="0"></path><path d="m12.172,15.927c-.281-.004-.38-.004-.708.013l-.013-.024c.029-.125.06-.248.088-.375l.04-.171c.061-.266.121-.576.128-.669.006-.057.024-.199-.137-.199-.069,0-.14.034-.211.066-.04.142-.12.538-.157.72-.082.382-.087.425-.123.614l-.024.025c-.29-.004-.39-.004-.723.013l-.016-.028c.056-.227.111-.456.165-.682.14-.615.173-.85.212-1.162l.026-.019c.325-.046.404-.055.755-.127l.03.033-.053.196c.059-.035.115-.071.177-.102.166-.082.35-.106.452-.106.153,0,.322.043.392.221.067.159.023.355-.065.74l-.045.196c-.09.429-.105.508-.155.802l-.033.025Z" fill="#fff" stroke-width="0"></path><path d="m13.313,15.927c-.169,0-.278-.004-.384,0-.106,0-.209.006-.366.014l-.01-.014-.011-.014c.043-.163.067-.22.088-.277.022-.057.042-.115.08-.28.049-.215.079-.366.101-.497.022-.128.035-.236.051-.362l.013-.01.014-.012c.168-.024.276-.039.384-.056.11-.016.222-.038.396-.071l.007.015.005.015c-.032.133-.065.266-.097.402-.031.135-.064.267-.093.401-.064.283-.088.388-.104.464-.014.072-.019.111-.044.258l-.015.013-.016.012Z" fill="#fff" stroke-width="0"></path><path d="m15.103,14.929c-.015.073-.079.344-.166.459-.06.085-.131.136-.21.136-.022,0-.161,0-.164-.206-.002-.101.02-.207.045-.319.074-.327.161-.602.384-.602.175,0,.187.204.111.532m.734.031c.099-.432.023-.634-.073-.758-.147-.187-.405-.247-.673-.247-.161,0-.545.016-.845.294-.215.199-.315.47-.375.729-.06.264-.13.741.308.918.136.057.329.073.455.073.321,0,.65-.088.896-.351.192-.213.279-.529.308-.659" fill="#fff" stroke-width="0"></path><path d="m22.706,15.957c-.339-.003-.436-.003-.75.01l-.021-.025c.086-.322.171-.644.247-.969.098-.423.121-.602.154-.85l.025-.021c.336-.048.43-.062.781-.126l.011.029c-.064.265-.129.53-.19.797-.129.557-.176.841-.226,1.132l-.031.024Z" fill="#fff" stroke-width="0"></path><path d="m22.196,14.967c-.016.069-.08.343-.167.457-.057.081-.194.133-.273.133-.022,0-.16,0-.165-.204-.001-.1.02-.206.046-.319.074-.32.161-.594.384-.594.175,0,.25.199.175.528m.67.032c.098-.43-.298-.038-.361-.18-.097-.221-.036-.67-.427-.82-.15-.058-.503.017-.804.292-.213.198-.315.466-.374.725-.061.26-.13.737.305.907.138.058.264.075.389.07.438-.024.772-.685,1.019-.947.191-.207.224.078.253-.048" fill="#fff" stroke-width="0"></path><path d="m17.756,15.927c-.282-.004-.377-.004-.708.013l-.012-.024c.028-.125.06-.248.089-.375l.039-.171c.061-.266.121-.576.127-.669.006-.057.024-.199-.136-.199-.07,0-.14.034-.212.066-.039.142-.12.538-.158.72-.08.382-.086.425-.122.614l-.024.025c-.29-.004-.389-.004-.722.013l-.015-.028c.055-.227.11-.456.163-.682.14-.615.173-.85.211-1.162l.026-.019c.325-.046.404-.055.755-.127l.028.033-.051.196c.058-.035.116-.071.176-.102.165-.082.351-.106.45-.106.154,0,.323.043.395.221.066.159.021.355-.067.74l-.044.196c-.092.429-.106.508-.155.802l-.035.025Z" fill="#fff" stroke-width="0"></path><path d="m20.191,12.564s-.233.003-.233.003c-.607.007-.851.004-.951-.008-.01.044-.026.123-.026.123l-.217,1.01s-.52,2.144-.545,2.245c.53-.006.747-.006.838.003.021-.101.145-.699.145-.699,0,0,.106-.44.112-.456,0,0,.033-.045.066-.063h.048c.457,0,.974,0,1.378-.298.275-.204.464-.506.548-.871.022-.09.038-.198.038-.304,0-.14-.028-.279-.11-.388-.206-.289-.616-.293-1.091-.296m.304,1.05c-.05.223-.194.412-.381.503-.155.078-.343.083-.537.083h-.125l.009-.05s.232-1.007.231-1.004l.007-.051.004-.04.092.01s.476.041.488.043c.189.072.266.261.211.506" fill="#fff" stroke-width="0"></path><path d="m25.481,13.972l-.027-.03c-.346.069-.409.081-.728.123l-.024.023s-.002.01-.003.015l-.002-.005c-.237.548-.23.43-.423.861-.001-.02-.002-.033-.002-.054l-.048-.934-.03-.03c-.362.069-.372.081-.707.123l-.027.023c-.002.012-.003.024-.005.037l.003.005c.042.215.032.167.074.504.02.166.045.333.065.497.034.274.052.41.092.828-.226.375-.28.516-.496.845l.012.03c.328-.012.404-.012.646-.012l.054-.06c.183-.395,1.579-2.791,1.579-2.791" fill="#fff" stroke-width="0"></path><path d="m13.622,14.204c.185-.129.209-.308.052-.401-.159-.093-.436-.064-.623.066-.188.128-.209.307-.052.4.157.091.435.065.623-.065" fill="#fff" stroke-width="0"></path><path d="m23.878,16.796l-.273.467c-.086.159-.246.279-.501.28l-.435-.007.126-.421h.084c.045,0,.077-.003.103-.015.021-.007.037-.024.055-.049l.16-.255h.68Z" fill="#fff" stroke-width="0"></path></g></svg>
